Coordinates
version=1
nRows=24
nColumns=24
inDegrees=yes

Units are S.I. units (second, meters, Newtons, ...)
Angles are in degrees.

endheader
time	pelvis_tilt	pelvis_list	pelvis_rotation	pelvis_tx	pelvis_ty	pelvis_tz	hip_flexion_r	hip_adduction_r	hip_rotation_r	knee_angle_r	ankle_angle_r	subtalar_angle_r	mtp_angle_r	hip_flexion_l	hip_adduction_l	hip_rotation_l	knee_angle_l	ankle_angle_l	subtalar_angle_l	mtp_angle_l	lumbar_extension	lumbar_bending	lumbar_rotation
      0.72100000	      5.32519800	      1.03125142	      0.43577572	     -0.47511002	      1.02579011	      0.29022939	      4.82625688	      3.62204450	      1.35687450	    -16.04521516	      5.98039134	    -14.17886153	      9.04920950	     11.37127152	     -1.34359962	     -5.56755022	    -65.17472198	      3.64789731	    -14.35024135	      1.14434762	    -13.97464378	     -1.56139728	      3.69334893
      0.72516667	      5.27892205	      1.17088804	      0.29549053	     -0.46991094	      1.02658593	      0.29040244	      4.41834700	      3.46983710	      1.46135951	    -15.77358504	      6.07975985	    -14.09170676	      9.05309426	     11.87179318	     -1.14995128	     -5.58192998	    -64.59952436	      3.94950917	    -14.32387142	      1.10306730	    -13.94494560	     -1.74118142	      3.80503901
      0.72933333	      5.26349699	      1.32227778	      0.13181237	     -0.46472896	      1.02738870	      0.29055938	      3.98998179	      3.29868419	      1.57609844	    -15.52676113	      6.20603256	    -13.96262993	      9.06047761	     12.31389403	     -0.94362871	     -5.61240615	    -63.94890063	      4.24121394	    -14.20711615	      1.03869334	    -13.95137729	     -1.90155916	      4.01401445
      0.73350000	      5.23843967	      1.46050551	     -0.02501421	     -0.45955257	      1.02813632	      0.29069893	      3.56763974	      3.13783264	      1.66923383	    -15.26506644	      6.32897217	    -13.82776806	      9.06959691	     12.75836152	     -0.75713787	     -5.64221944	    -63.25285813	      4.51853357	    -14.06075544	      0.97492681	    -13.94734827	     -2.06366100	      4.21782105
      0.73766667	      5.20107232	      1.59072266	     -0.17797224	     -0.45436246	      1.02882382	      0.29081802	      3.15456331	      2.98177858	      1.75931676	    -14.99482897	      6.44348496	    -13.69001106	      9.07931434	     13.20286201	     -0.58296291	     -5.66853958	    -62.50698325	      4.78674648	    -13.86953555	      0.92198464	    -13.92763439	     -2.21486957	      4.40197606
      0.74183333	      5.17568372	      1.70742948	     -0.33866922	     -0.44917755	      1.02947522	      0.29093521	      2.72807346	      2.83739303	      1.84837266	    -14.72224271	      6.60947788	    -13.51058013	      9.09825978	     13.61976132	     -0.43459573	     -5.71349927	    -61.71554854	      5.04916719	    -13.61878046	      0.83007739	    -13.92595212	     -2.35322016	      4.68118517
      0.74600000	      5.12522520	      1.83239102	     -0.49435653	     -0.44399621	      1.03005950	      0.29101595	      2.33408508	      2.68003763	      1.92607788	    -14.45544397	      6.68926284	    -13.39293380	      9.10881673	     14.04739931	     -0.26976471	     -5.74440049	    -60.86377080	      5.28126927	    -13.37761469	      0.78989626	    -13.88808662	     -2.49659090	      4.81069589
      0.75016667	      5.08341111	      1.94245349	     -0.65643290	     -0.43881701	      1.03058540	      0.29110529	      1.92985818	      2.53715985	      2.00960329	    -14.18671301	      6.81398051	    -13.24416405	      9.12237208	     14.45195854	     -0.13551504	     -5.79323989	    -59.97437951	      5.51644933	    -13.06623090	      0.75003356	    -13.86189548	     -2.62539472	      4.99751460
      0.75433333	      5.04274539	      2.04103418	     -0.81480592	     -0.43362862	      1.03107851	      0.29117136	      1.51977221	      2.40415647	      2.08921620	    -13.90891426	      6.93289943	    -13.09788897	      9.13632945	     14.83888054	     -0.01621725	     -5.84136076	    -59.03794980	      5.72314626	    -12.74981540	      0.71532751	    -13.83630826	     -2.73954764	      5.19048627
      0.75850000	      5.02154390	      2.11204676	     -0.97381600	     -0.42845296	      1.03153085	      0.29124056	      1.08137867	      2.29956858	      2.17062458	    -13.61402815	      7.09060170	    -12.93064849	      9.15957766	     15.19331717	      0.06072771	     -5.90169158	    -58.07223071	      5.93829163	    -12.39002583	      0.65893980	    -13.84048533	     -2.81805118	      5.47224068
      0.76266667	      4.97151464	      2.21102449	     -1.13293259	     -0.42327289	      1.03192031	      0.29128219	      0.68531334	      2.16101730	      2.24180470	    -13.33907752	      7.17560999	    -12.80903577	      9.17261642	     15.55448920	      0.17679329	     -5.95435280	    -57.03514321	      6.08342361	    -12.07348572	      0.63329119	    -13.80159655	     -2.93170731	      5.61333570
      0.76683333	      4.94460229	      2.28191862	     -1.29175239	     -0.41809880	      1.03227692	      0.29132076	      0.25776752	      2.05186585	      2.31973935	    -13.05198268	      7.29628273	    -12.67023520	      9.18822274	     15.87717503	      0.25020716	     -6.01939906	    -55.96995778	      6.23527589	    -11.71322323	      0.60834059	    -13.79167278	     -3.01384589	      5.81022740
      0.77100000	      4.89960402	      2.34291114	     -1.44708876	     -0.41291887	      1.03254465	      0.29135282	     -0.15053857	      1.95291885	      2.39753082	    -12.76467656	      7.41805037	    -12.54180041	      9.20375877	     16.20502728	      0.30943591	     -6.08523332	    -54.87079688	      6.35990339	    -11.36567697	      0.58683668	    -13.76298559	     -3.08192215	      6.01352165
      0.77516667	      4.84284253	      2.39090015	     -1.59598410	     -0.40773867	      1.03275138	      0.29136255	     -0.54928840	      1.86729243	      2.47574419	    -12.47084324	      7.53409366	    -12.42373433	      9.21840119	     16.53012429	      0.35292577	     -6.14838285	    -53.73417455	      6.45627569	    -11.02656551	      0.56920698	    -13.72090001	     -3.13379353	      6.21148986
      0.77933333	      4.83461194	      2.41780019	     -1.74347121	     -0.40257998	      1.03296749	      0.29137157	     -1.01036665	      1.80290219	      2.56606532	    -12.15569785	      7.67331489	    -12.30625558	      9.24254868	     16.78681806	      0.36780000	     -6.21778089	    -52.56619553	      6.55516164	    -10.68207757	      0.54077879	    -13.74428742	     -3.15555713	      6.49771309
      0.78350000	      4.75804720	      2.47085147	     -1.88207961	     -0.39738302	      1.03306996	      0.29135720	     -1.38936666	      1.70909715	      2.63266976	    -11.85788563	      7.76503321	    -12.21597317	      9.25360834	     17.09333818	      0.41513215	     -6.28164229	    -51.33818016	      6.56935625	    -10.39415169	      0.53114693	    -13.67959285	     -3.21759029	      6.61926005
      0.78766667	      4.70835458	      2.49638948	     -2.02373688	     -0.39221517	      1.03312437	      0.29135004	     -1.79018892	      1.64521880	      2.71181952	    -11.57585948	      7.88561273	    -12.12563845	      9.26679136	     17.35579747	      0.42489509	     -6.35443725	    -50.08551408	      6.58982917	    -10.08283899	      0.52303437	    -13.63844993	     -3.24362206	      6.80954277
      0.79183333	      4.67593073	      2.51351024	     -2.15533886	     -0.38705261	      1.03317390	      0.29132263	     -2.21980177	      1.58877198	      2.78734902	    -11.27165403	      7.99777667	    -12.04511220	      9.27979442	     17.58172769	      0.42584371	     -6.42660369	    -48.79421809	      6.58469889	     -9.79016559	      0.51715382	    -13.62729747	     -3.25844310	      7.01123963
      0.79600000	      4.64473237	      2.52697364	     -2.28390942	     -0.38188115	      1.03316685	      0.29129162	     -2.65601093	      1.53615433	      2.87802415	    -10.95860352	      8.13925870	    -11.96916526	      9.29734219	     17.78707050	      0.42238986	     -6.50080933	    -47.47042858	      6.56634783	     -9.53733854	      0.51284199	    -13.62610407	     -3.26352967	      7.26053575
      0.80016667	      4.59249031	      2.53298545	     -2.39689814	     -0.37670383	      1.03310492	      0.29123946	     -3.06542055	      1.49262940	      2.95008427	    -10.65539624	      8.24435892	    -11.91072014	      9.31204266	     17.99481008	      0.41337510	     -6.56276594	    -46.10257216	      6.50210836	     -9.29642732	      0.51368810	    -13.59027459	     -3.26568912	      7.43966752
      0.80433333	      4.50310250	      2.53593515	     -2.49391806	     -0.37152157	      1.03293266	      0.29116644	     -3.42875618	      1.45364556	      3.00082312	    -10.36566057	      8.34233141	    -11.85529839	      9.31957906	     18.22970196	      0.39915403	     -6.62310536	    -44.70768605	      6.41044422	     -9.05777690	      0.51589196	    -13.51112873	     -3.26182618	      7.55071276
      0.80850000	      4.44687970	      2.53645735	     -2.59361214	     -0.36633819	      1.03278054	      0.29108871	     -3.82990154	      1.41541034	      3.06635048	    -10.07325861	      8.45555904	    -11.80812199	      9.32677690	     18.40035175	      0.38362380	     -6.69445433	    -43.26335667	      6.29939043	     -8.85032278	      0.52135867	    -13.47384640	     -3.25821935	      7.71026161
      0.81266667	      4.37437506	      2.52632207	     -2.67450860	     -0.36115178	      1.03254579	      0.29099685	     -4.21487857	      1.39153912	      3.12110616	     -9.78109275	      8.57418347	    -11.76706454	      9.33240155	     18.57493516	      0.35709826	     -6.75906837	    -41.79521008	      6.17700666	     -8.65454581	      0.52919854	    -13.41990368	     -3.23874198	      7.85770061
      0.81683333	      4.30388100	      2.52490922	     -2.74854088	     -0.35595524	      1.03228607	      0.29089092	     -4.60074187	      1.35735981	      3.16328109	     -9.49108225	      8.69167415	    -11.72967446	      9.33575298	     18.72217048	      0.33955467	     -6.83865130	    -40.28111990	      6.02853740	     -8.46960235	      0.53842552	    -13.37754601	     -3.22132807	      7.99284541
